<svg
        width="45"
        height="45"
        viewBox="0 0 45 45"
        fill="none"
        xmlns="http://www.w3.org/2000/svg"
      >
        <g clip-path="url(#clip0_1002_277)">
          <path
            d="M21.1838 4.11564C22.0324 3.79751 22.9676 3.79751 23.8162 4.11564L36.9412 9.03751C37.6562 9.30551 38.2723 9.78536 38.7072 10.4129C39.1421 11.0405 39.3751 11.7859 39.375 12.5494V22.605C39.3751 25.7389 38.5024 28.811 36.8549 31.4769C35.2073 34.1428 32.8499 36.2972 30.0469 37.6988L23.7581 40.8413C23.3675 41.0366 22.9368 41.1384 22.5 41.1384C22.0632 41.1384 21.6325 41.0366 21.2419 40.8413L14.9531 37.6969C12.1501 36.2953 9.79269 34.1409 8.14513 31.475C6.49757 28.8091 5.62493 25.7371 5.625 22.6031V12.5513C5.62452 11.7874 5.85732 11.0416 6.29225 10.4137C6.72718 9.78576 7.3435 9.30562 8.05875 9.03751L21.1838 4.11564ZM24.375 21.9975C25.0899 21.5847 25.6485 20.9476 25.9644 20.185C26.2803 19.4223 26.3357 18.5768 26.1221 17.7794C25.9084 16.9821 25.4376 16.2775 24.7828 15.775C24.1279 15.2725 23.3255 15 22.5 15C21.6745 15 20.8721 15.2725 20.2172 15.775C19.5624 16.2775 19.0916 16.9821 18.8779 17.7794C18.6643 18.5768 18.7197 19.4223 19.0356 20.185C19.3515 20.9476 19.9101 21.5847 20.625 21.9975V28.125C20.625 28.6223 20.8225 29.0992 21.1742 29.4508C21.5258 29.8025 22.0027 30 22.5 30C22.9973 30 23.4742 29.8025 23.8258 29.4508C24.1775 29.0992 24.375 28.6223 24.375 28.125V21.9975Z"
            fill="#7c3aed"
          />
        </g>
        <defs>
          <clipPath id="clip0_1002_277">
            <rect width="45" height="45" fill="white" />
          </clipPath>
        </defs>
</svg>